%TF.GenerationSoftware,KiCad,Pcbnew,10.0.6*%
%TF.CreationDate,2026-09-14T15:53:36-04:00*%
%TF.ProjectId,AgentBoard,4167656e-7442-46f6-9172-642e6b696361,rev?*%
%TF.SameCoordinates,Original*%
%TF.FileFunction,Copper,L1,Top*%
%TF.FilePolarity,Positive*%
%FSLAX46Y46*%
G04 Gerber Fmt 4.6, Leading zero omitted, Abs format (unit mm)*
G04 Created by KiCad (PCBNEW 10.0.6) date 2026-09-14 15:53:36*
%MOMM*%
%LPD*%
G01*
G04 APERTURE LIST*
%TA.AperFunction,ComponentPad*%
%ADD10C,2.200000*%
%TD*%
%TA.AperFunction,ComponentPad*%
%ADD11R,1.700000X1.700000*%
%TD*%
%TA.AperFunction,ComponentPad*%
%ADD12O,1.700000X1.700000*%
%TD*%
%TA.AperFunction,ComponentPad*%
%ADD13R,2.000000X2.000000*%
%TD*%
%TA.AperFunction,ComponentPad*%
%ADD14C,2.000000*%
%TD*%
%TA.AperFunction,ComponentPad*%
%ADD15R,3.200000X2.000000*%
%TD*%
%TA.AperFunction,ComponentPad*%
%ADD16R,3.500000X1.700000*%
%TD*%
%TA.AperFunction,ComponentPad*%
%ADD17O,3.600000X1.700000*%
%TD*%
%TA.AperFunction,ComponentPad*%
%ADD18O,3.700000X1.700000*%
%TD*%
%TA.AperFunction,ViaPad*%
%ADD19C,0.600000*%
%TD*%
%TA.AperFunction,Conductor*%
%ADD20C,0.200000*%
%TD*%
G04 APERTURE END LIST*
D10*
%TO.P,SW1,1,1_1*%
%TO.N,Net-(U1-PA6_A10_D10_MOSI)*%
X26460000Y-19420000D03*
%TO.P,SW1,2,2_2*%
%TO.N,GND*%
X20110000Y-21960000D03*
%TD*%
%TO.P,SW3,1,1_1*%
%TO.N,Net-(U1-PA7_A8_D8_SCK)*%
X26460000Y-57420000D03*
%TO.P,SW3,2,2_2*%
%TO.N,GND*%
X20110000Y-59960000D03*
%TD*%
%TO.P,SW2,1,1_1*%
%TO.N,Net-(U1-PA5_A9_D9_MISO)*%
X26460000Y-38420000D03*
%TO.P,SW2,2,2_2*%
%TO.N,GND*%
X20110000Y-40960000D03*
%TD*%
D11*
%TO.P,J1,1,Pin_1_1*%
%TO.N,GND*%
X41460000Y-34500000D03*
D12*
%TO.P,J1,2,Pin_2_2*%
%TO.N,VCC*%
X44000000Y-34500000D03*
%TO.P,J1,3,Pin_3_3*%
%TO.N,SCL*%
X46540000Y-34500000D03*
%TO.P,J1,4,Pin_4_4*%
%TO.N,SDA*%
X49080000Y-34500000D03*
%TD*%
D13*
%TO.P,SW4,A,A_A*%
%TO.N,EC11A*%
X38000000Y-22000000D03*
D14*
%TO.P,SW4,B,B_B*%
%TO.N,EC11B*%
X38000000Y-27000000D03*
%TO.P,SW4,C,C_C*%
%TO.N,GND*%
X38000000Y-24500000D03*
D15*
%TO.P,SW4,MP*%
%TO.N,N/C*%
X45500000Y-18900000D03*
X45500000Y-30100000D03*
D14*
%TO.P,SW4,S1,S1_S1*%
%TO.N,EC11SWB*%
X52500000Y-27000000D03*
%TO.P,SW4,S2,S2_S2*%
%TO.N,EC11SWA*%
X52500000Y-22000000D03*
%TD*%
D16*
%TO.P,U1,1,PA02_A0_D0_1*%
%TO.N,EC11SWA*%
X33000000Y-17760000D03*
D17*
%TO.P,U1,2,PA4_A1_D1_2*%
%TO.N,EC11SWB*%
X33000000Y-20300000D03*
%TO.P,U1,3,PA10_A2_D2_3*%
%TO.N,EC11A*%
X33000000Y-22840000D03*
%TO.P,U1,4,PA11_A3_D3_4*%
%TO.N,EC11B*%
X33000000Y-25380000D03*
%TO.P,U1,5,PA8_A4_D4_SDA_5*%
%TO.N,SDA*%
X33000000Y-27920000D03*
%TO.P,U1,6,PA9_A5_D5_SCL_6*%
%TO.N,SCL*%
X33000000Y-30460000D03*
%TO.P,U1,7,PB08_A6_D6_TX_7*%
%TO.N,unconnected-(U1-PB08_A6_D6_TX-Pad7)*%
X33000000Y-33000000D03*
%TO.P,U1,8,PB09_A7_D7_RX_8*%
%TO.N,unconnected-(U1-PB09_A7_D7_RX-Pad8)*%
X15750000Y-33000000D03*
%TO.P,U1,9,PA7_A8_D8_SCK_9*%
%TO.N,Net-(U1-PA7_A8_D8_SCK)*%
X15750000Y-30460000D03*
%TO.P,U1,10,PA5_A9_D9_MISO_10*%
%TO.N,Net-(U1-PA5_A9_D9_MISO)*%
X15750000Y-27920000D03*
D18*
%TO.P,U1,11,PA6_A10_D10_MOSI_11*%
%TO.N,Net-(U1-PA6_A10_D10_MOSI)*%
X15750000Y-25380000D03*
%TO.P,U1,12,3V3_12*%
%TO.N,unconnected-(U1-3V3-Pad12)*%
X15750000Y-22840000D03*
%TO.P,U1,13,GND_13*%
%TO.N,GND*%
X15750000Y-20300000D03*
%TO.P,U1,14,5V_14*%
%TO.N,VCC*%
X15750000Y-17760000D03*
%TD*%
D19*
%TO.N,VCC*%
X25500000Y-21000000D03*
%TD*%
%TO.N,GND*%
D20*
X30427056Y-37000000D02*
X30500000Y-37000000D01*
X30500000Y-37000000D02*
X33000000Y-34500000D01*
X33000000Y-34500000D02*
X41460000Y-34500000D01*
X38000000Y-24500000D02*
X37730000Y-24230000D01*
X20110000Y-40960000D02*
X28354112Y-40960000D01*
X16750000Y-20300000D02*
X18450000Y-20300000D01*
X30427056Y-24230000D02*
X28157056Y-21960000D01*
X30427056Y-37000000D02*
X30427056Y-38887056D01*
X30427056Y-24230000D02*
X30427056Y-37000000D01*
X20110000Y-40960000D02*
X20110000Y-59960000D01*
X18450000Y-20300000D02*
X20110000Y-21960000D01*
X28354112Y-40960000D02*
X30427056Y-38887056D01*
X37730000Y-24230000D02*
X30427056Y-24230000D01*
X20110000Y-21960000D02*
X28157056Y-21960000D01*
%TO.N,VCC*%
X22260000Y-17760000D02*
X16750000Y-17760000D01*
X25500000Y-21000000D02*
X22260000Y-17760000D01*
%TO.N,SCL*%
X42500000Y-30460000D02*
X46540000Y-34500000D01*
X32000000Y-30460000D02*
X42500000Y-30460000D01*
%TO.N,SDA*%
X49080000Y-30480000D02*
X46900000Y-28300000D01*
X46900000Y-28300000D02*
X32380000Y-28300000D01*
X49080000Y-34500000D02*
X49080000Y-30480000D01*
X32380000Y-28300000D02*
X32000000Y-27920000D01*
%TO.N,EC11A*%
X32840000Y-22000000D02*
X32000000Y-22840000D01*
X38000000Y-22000000D02*
X32840000Y-22000000D01*
%TO.N,EC11B*%
X36380000Y-25380000D02*
X32000000Y-25380000D01*
X38000000Y-27000000D02*
X36380000Y-25380000D01*
%TO.N,EC11SWB*%
X48600000Y-23100000D02*
X41700000Y-23100000D01*
X41700000Y-23100000D02*
X38900000Y-20300000D01*
X52500000Y-27000000D02*
X48600000Y-23100000D01*
X38900000Y-20300000D02*
X32000000Y-20300000D01*
%TO.N,EC11SWA*%
X45400000Y-22000000D02*
X41160000Y-17760000D01*
X41160000Y-17760000D02*
X32000000Y-17760000D01*
X52500000Y-22000000D02*
X45400000Y-22000000D01*
%TD*%
M02*
