%TF.GenerationSoftware,KiCad,Pcbnew,10.0.6*%
%TF.CreationDate,2026-09-14T15:53:36-04:00*%
%TF.ProjectId,AgentBoard,4167656e-7442-46f6-9172-642e6b696361,rev?*%
%TF.SameCoordinates,Original*%
%TF.FileFunction,Legend,Bot*%
%TF.FilePolarity,Positive*%
%FSLAX46Y46*%
G04 Gerber Fmt 4.6, Leading zero omitted, Abs format (unit mm)*
G04 Created by KiCad (PCBNEW 10.0.6) date 2026-09-14 15:53:36*
%MOMM*%
%LPD*%
G01*
G04 APERTURE LIST*
%ADD10C,0.101600*%
%ADD11C,0.150000*%
%ADD12C,0.127000*%
%ADD13C,0.120000*%
%ADD14C,0.254000*%
%ADD15C,0.025400*%
G04 APERTURE END LIST*
D10*
X25052333Y-27436985D02*
X25052333Y-28156652D01*
X25052333Y-28156652D02*
X25010000Y-28241318D01*
X25010000Y-28241318D02*
X24967666Y-28283652D01*
X24967666Y-28283652D02*
X24883000Y-28325985D01*
X24883000Y-28325985D02*
X24713666Y-28325985D01*
X24713666Y-28325985D02*
X24629000Y-28283652D01*
X24629000Y-28283652D02*
X24586666Y-28241318D01*
X24586666Y-28241318D02*
X24544333Y-28156652D01*
X24544333Y-28156652D02*
X24544333Y-27436985D01*
X23655333Y-28325985D02*
X24163333Y-28325985D01*
X23909333Y-28325985D02*
X23909333Y-27436985D01*
X23909333Y-27436985D02*
X23994000Y-27563985D01*
X23994000Y-27563985D02*
X24078667Y-27648652D01*
X24078667Y-27648652D02*
X24163333Y-27690985D01*
D11*
X29136904Y-24287200D02*
X28994047Y-24334819D01*
X28994047Y-24334819D02*
X28755952Y-24334819D01*
X28755952Y-24334819D02*
X28660714Y-24287200D01*
X28660714Y-24287200D02*
X28613095Y-24239580D01*
X28613095Y-24239580D02*
X28565476Y-24144342D01*
X28565476Y-24144342D02*
X28565476Y-24049104D01*
X28565476Y-24049104D02*
X28613095Y-23953866D01*
X28613095Y-23953866D02*
X28660714Y-23906247D01*
X28660714Y-23906247D02*
X28755952Y-23858628D01*
X28755952Y-23858628D02*
X28946428Y-23811009D01*
X28946428Y-23811009D02*
X29041666Y-23763390D01*
X29041666Y-23763390D02*
X29089285Y-23715771D01*
X29089285Y-23715771D02*
X29136904Y-23620533D01*
X29136904Y-23620533D02*
X29136904Y-23525295D01*
X29136904Y-23525295D02*
X29089285Y-23430057D01*
X29089285Y-23430057D02*
X29041666Y-23382438D01*
X29041666Y-23382438D02*
X28946428Y-23334819D01*
X28946428Y-23334819D02*
X28708333Y-23334819D01*
X28708333Y-23334819D02*
X28565476Y-23382438D01*
X27755952Y-24287200D02*
X27851190Y-24334819D01*
X27851190Y-24334819D02*
X28041666Y-24334819D01*
X28041666Y-24334819D02*
X28136904Y-24287200D01*
X28136904Y-24287200D02*
X28184523Y-24191961D01*
X28184523Y-24191961D02*
X28184523Y-23811009D01*
X28184523Y-23811009D02*
X28136904Y-23715771D01*
X28136904Y-23715771D02*
X28041666Y-23668152D01*
X28041666Y-23668152D02*
X27851190Y-23668152D01*
X27851190Y-23668152D02*
X27755952Y-23715771D01*
X27755952Y-23715771D02*
X27708333Y-23811009D01*
X27708333Y-23811009D02*
X27708333Y-23906247D01*
X27708333Y-23906247D02*
X28184523Y-24001485D01*
X26898809Y-24287200D02*
X26994047Y-24334819D01*
X26994047Y-24334819D02*
X27184523Y-24334819D01*
X27184523Y-24334819D02*
X27279761Y-24287200D01*
X27279761Y-24287200D02*
X27327380Y-24191961D01*
X27327380Y-24191961D02*
X27327380Y-23811009D01*
X27327380Y-23811009D02*
X27279761Y-23715771D01*
X27279761Y-23715771D02*
X27184523Y-23668152D01*
X27184523Y-23668152D02*
X26994047Y-23668152D01*
X26994047Y-23668152D02*
X26898809Y-23715771D01*
X26898809Y-23715771D02*
X26851190Y-23811009D01*
X26851190Y-23811009D02*
X26851190Y-23906247D01*
X26851190Y-23906247D02*
X27327380Y-24001485D01*
X26041666Y-24287200D02*
X26136904Y-24334819D01*
X26136904Y-24334819D02*
X26327380Y-24334819D01*
X26327380Y-24334819D02*
X26422618Y-24287200D01*
X26422618Y-24287200D02*
X26470237Y-24191961D01*
X26470237Y-24191961D02*
X26470237Y-23811009D01*
X26470237Y-23811009D02*
X26422618Y-23715771D01*
X26422618Y-23715771D02*
X26327380Y-23668152D01*
X26327380Y-23668152D02*
X26136904Y-23668152D01*
X26136904Y-23668152D02*
X26041666Y-23715771D01*
X26041666Y-23715771D02*
X25994047Y-23811009D01*
X25994047Y-23811009D02*
X25994047Y-23906247D01*
X25994047Y-23906247D02*
X26470237Y-24001485D01*
X25136904Y-24334819D02*
X25136904Y-23334819D01*
X25136904Y-24287200D02*
X25232142Y-24334819D01*
X25232142Y-24334819D02*
X25422618Y-24334819D01*
X25422618Y-24334819D02*
X25517856Y-24287200D01*
X25517856Y-24287200D02*
X25565475Y-24239580D01*
X25565475Y-24239580D02*
X25613094Y-24144342D01*
X25613094Y-24144342D02*
X25613094Y-23858628D01*
X25613094Y-23858628D02*
X25565475Y-23763390D01*
X25565475Y-23763390D02*
X25517856Y-23715771D01*
X25517856Y-23715771D02*
X25422618Y-23668152D01*
X25422618Y-23668152D02*
X25232142Y-23668152D01*
X25232142Y-23668152D02*
X25136904Y-23715771D01*
X23946427Y-24287200D02*
X23803570Y-24334819D01*
X23803570Y-24334819D02*
X23565475Y-24334819D01*
X23565475Y-24334819D02*
X23470237Y-24287200D01*
X23470237Y-24287200D02*
X23422618Y-24239580D01*
X23422618Y-24239580D02*
X23374999Y-24144342D01*
X23374999Y-24144342D02*
X23374999Y-24049104D01*
X23374999Y-24049104D02*
X23422618Y-23953866D01*
X23422618Y-23953866D02*
X23470237Y-23906247D01*
X23470237Y-23906247D02*
X23565475Y-23858628D01*
X23565475Y-23858628D02*
X23755951Y-23811009D01*
X23755951Y-23811009D02*
X23851189Y-23763390D01*
X23851189Y-23763390D02*
X23898808Y-23715771D01*
X23898808Y-23715771D02*
X23946427Y-23620533D01*
X23946427Y-23620533D02*
X23946427Y-23525295D01*
X23946427Y-23525295D02*
X23898808Y-23430057D01*
X23898808Y-23430057D02*
X23851189Y-23382438D01*
X23851189Y-23382438D02*
X23755951Y-23334819D01*
X23755951Y-23334819D02*
X23517856Y-23334819D01*
X23517856Y-23334819D02*
X23374999Y-23382438D01*
X23089284Y-23668152D02*
X22708332Y-23668152D01*
X22946427Y-23334819D02*
X22946427Y-24191961D01*
X22946427Y-24191961D02*
X22898808Y-24287200D01*
X22898808Y-24287200D02*
X22803570Y-24334819D01*
X22803570Y-24334819D02*
X22708332Y-24334819D01*
X21946427Y-23668152D02*
X21946427Y-24334819D01*
X22374998Y-23668152D02*
X22374998Y-24191961D01*
X22374998Y-24191961D02*
X22327379Y-24287200D01*
X22327379Y-24287200D02*
X22232141Y-24334819D01*
X22232141Y-24334819D02*
X22089284Y-24334819D01*
X22089284Y-24334819D02*
X21994046Y-24287200D01*
X21994046Y-24287200D02*
X21946427Y-24239580D01*
X21041665Y-24334819D02*
X21041665Y-23334819D01*
X21041665Y-24287200D02*
X21136903Y-24334819D01*
X21136903Y-24334819D02*
X21327379Y-24334819D01*
X21327379Y-24334819D02*
X21422617Y-24287200D01*
X21422617Y-24287200D02*
X21470236Y-24239580D01*
X21470236Y-24239580D02*
X21517855Y-24144342D01*
X21517855Y-24144342D02*
X21517855Y-23858628D01*
X21517855Y-23858628D02*
X21470236Y-23763390D01*
X21470236Y-23763390D02*
X21422617Y-23715771D01*
X21422617Y-23715771D02*
X21327379Y-23668152D01*
X21327379Y-23668152D02*
X21136903Y-23668152D01*
X21136903Y-23668152D02*
X21041665Y-23715771D01*
X20565474Y-24334819D02*
X20565474Y-23668152D01*
X20565474Y-23334819D02*
X20613093Y-23382438D01*
X20613093Y-23382438D02*
X20565474Y-23430057D01*
X20565474Y-23430057D02*
X20517855Y-23382438D01*
X20517855Y-23382438D02*
X20565474Y-23334819D01*
X20565474Y-23334819D02*
X20565474Y-23430057D01*
X19946427Y-24334819D02*
X20041665Y-24287200D01*
X20041665Y-24287200D02*
X20089284Y-24239580D01*
X20089284Y-24239580D02*
X20136903Y-24144342D01*
X20136903Y-24144342D02*
X20136903Y-23858628D01*
X20136903Y-23858628D02*
X20089284Y-23763390D01*
X20089284Y-23763390D02*
X20041665Y-23715771D01*
X20041665Y-23715771D02*
X19946427Y-23668152D01*
X19946427Y-23668152D02*
X19803570Y-23668152D01*
X19803570Y-23668152D02*
X19708332Y-23715771D01*
X19708332Y-23715771D02*
X19660713Y-23763390D01*
X19660713Y-23763390D02*
X19613094Y-23858628D01*
X19613094Y-23858628D02*
X19613094Y-24144342D01*
X19613094Y-24144342D02*
X19660713Y-24239580D01*
X19660713Y-24239580D02*
X19708332Y-24287200D01*
X19708332Y-24287200D02*
X19803570Y-24334819D01*
X19803570Y-24334819D02*
X19946427Y-24334819D01*
X25898808Y-25334819D02*
X25232142Y-26334819D01*
X25232142Y-25334819D02*
X25898808Y-26334819D01*
X24851189Y-26334819D02*
X24851189Y-25334819D01*
X24422618Y-26049104D02*
X23946428Y-26049104D01*
X24517856Y-26334819D02*
X24184523Y-25334819D01*
X24184523Y-25334819D02*
X23851190Y-26334819D01*
X23327380Y-25334819D02*
X23136904Y-25334819D01*
X23136904Y-25334819D02*
X23041666Y-25382438D01*
X23041666Y-25382438D02*
X22946428Y-25477676D01*
X22946428Y-25477676D02*
X22898809Y-25668152D01*
X22898809Y-25668152D02*
X22898809Y-26001485D01*
X22898809Y-26001485D02*
X22946428Y-26191961D01*
X22946428Y-26191961D02*
X23041666Y-26287200D01*
X23041666Y-26287200D02*
X23136904Y-26334819D01*
X23136904Y-26334819D02*
X23327380Y-26334819D01*
X23327380Y-26334819D02*
X23422618Y-26287200D01*
X23422618Y-26287200D02*
X23517856Y-26191961D01*
X23517856Y-26191961D02*
X23565475Y-26001485D01*
X23565475Y-26001485D02*
X23565475Y-25668152D01*
X23565475Y-25668152D02*
X23517856Y-25477676D01*
X23517856Y-25477676D02*
X23422618Y-25382438D01*
X23422618Y-25382438D02*
X23327380Y-25334819D01*
%TO.C,U1*%
D12*
X15475000Y-33880000D02*
X15475000Y-16880000D01*
X17475000Y-14880910D02*
X31275000Y-14880910D01*
X19875000Y-13455970D02*
X19875000Y-20809270D01*
X19875000Y-20809270D02*
X28875000Y-20809270D01*
X28875000Y-13455970D02*
X19875000Y-13455970D01*
X28875000Y-20809270D02*
X28875000Y-13455970D01*
X31275000Y-35880000D02*
X17475000Y-35880000D01*
X33275000Y-16880000D02*
X33275000Y-33880000D01*
D13*
X15475000Y-16880000D02*
G75*
G02*
X17475000Y-14880000I2044610J-44610D01*
G01*
X17475000Y-35880000D02*
G75*
G02*
X15475000Y-33880000I0J2000000D01*
G01*
X31275000Y-14880000D02*
G75*
G02*
X33275000Y-16880000I-44612J-2044612D01*
G01*
X33275000Y-33880000D02*
G75*
G02*
X31275000Y-35880000I-2044857J44857D01*
G01*
D14*
X35502000Y-16580000D02*
G75*
G02*
X35248000Y-16580000I-127000J0D01*
G01*
X35248000Y-16580000D02*
G75*
G02*
X35502000Y-16580000I127000J0D01*
G01*
D15*
X33262715Y-16818295D02*
X33259667Y-16769527D01*
X33255603Y-16720506D01*
X33262715Y-16818295D01*
X15485508Y-33901574D02*
X15487287Y-33950850D01*
X15490335Y-33999618D01*
X15494399Y-34048639D01*
X15499732Y-34097407D01*
X15506336Y-34146175D01*
X15513956Y-34194690D01*
X15522847Y-34242950D01*
X15532752Y-34290955D01*
X15485508Y-33901574D01*
%TD*%
M02*
