%TF.GenerationSoftware,KiCad,Pcbnew,10.0.6*%
%TF.CreationDate,2026-09-14T15:53:36-04:00*%
%TF.ProjectId,AgentBoard,4167656e-7442-46f6-9172-642e6b696361,rev?*%
%TF.SameCoordinates,Original*%
%TF.FileFunction,AssemblyDrawing,Bot*%
%FSLAX46Y46*%
G04 Gerber Fmt 4.6, Leading zero omitted, Abs format (unit mm)*
G04 Created by KiCad (PCBNEW 10.0.6) date 2026-09-14 15:53:36*
%MOMM*%
%LPD*%
G01*
G04 APERTURE LIST*
%ADD10C,0.025400*%
G04 APERTURE END LIST*
%TO.C,U1*%
D10*
X15475000Y-33852551D02*
X15475000Y-16916594D01*
X15485000Y-16916594D02*
X15485508Y-16867571D01*
X15485508Y-16867571D02*
X15487287Y-16818295D01*
X15485508Y-33901574D02*
X15485000Y-33852551D01*
X15487287Y-16818295D02*
X15490335Y-16769527D01*
X15487287Y-33950850D02*
X15485508Y-33901574D01*
X15490335Y-16769527D02*
X15494399Y-16720506D01*
X15490335Y-33999618D02*
X15487287Y-33950850D01*
X15494399Y-16720506D02*
X15499732Y-16671738D01*
X15494399Y-34048639D02*
X15490335Y-33999618D01*
X15499732Y-16671738D02*
X15506336Y-16622970D01*
X15499732Y-34097407D02*
X15494399Y-34048639D01*
X15506336Y-16622970D02*
X15513956Y-16574455D01*
X15506336Y-34146175D02*
X15499732Y-34097407D01*
X15513956Y-16574455D02*
X15522847Y-16526195D01*
X15513956Y-34194690D02*
X15506336Y-34146175D01*
X15522847Y-16526195D02*
X15532752Y-16478190D01*
X15522847Y-34242950D02*
X15513956Y-34194690D01*
X15532752Y-16478190D02*
X15543928Y-16430183D01*
X15532752Y-34290955D02*
X15522847Y-34242950D01*
X15543928Y-16430183D02*
X15556375Y-16382686D01*
X15543928Y-34338962D02*
X15532752Y-34290955D01*
X15556375Y-16382686D02*
X15569836Y-16335442D01*
X15556375Y-34386459D02*
X15543928Y-34338962D01*
X15569836Y-16335442D02*
X15584568Y-16288706D01*
X15569836Y-34433703D02*
X15556375Y-34386459D01*
X15584568Y-16288706D02*
X15600316Y-16242223D01*
X15584568Y-34480439D02*
X15569836Y-34433703D01*
X15600316Y-16242223D02*
X15617080Y-16195995D01*
X15600316Y-34526922D02*
X15584568Y-34480439D01*
X15617080Y-16195995D02*
X15635115Y-16150275D01*
X15617080Y-34573150D02*
X15600316Y-34526922D01*
X15635115Y-16150275D02*
X15654164Y-16105063D01*
X15635115Y-34618870D02*
X15617080Y-34573150D01*
X15654164Y-16105063D02*
X15674231Y-16060359D01*
X15654164Y-34664082D02*
X15635115Y-34618870D01*
X15674231Y-16060359D02*
X15695567Y-16015910D01*
X15674231Y-34708786D02*
X15654164Y-34664082D01*
X15695567Y-16015910D02*
X15717664Y-15972222D01*
X15695567Y-34753235D02*
X15674231Y-34708786D01*
X15717664Y-15972222D02*
X15741032Y-15929042D01*
X15717664Y-34796923D02*
X15695567Y-34753235D01*
X15741032Y-15929042D02*
X15765416Y-15886370D01*
X15741032Y-34840103D02*
X15717664Y-34796923D01*
X15765416Y-15886370D02*
X15790816Y-15844459D01*
X15765416Y-34882775D02*
X15741032Y-34840103D01*
X15790816Y-15844459D02*
X15817232Y-15803058D01*
X15790816Y-34924686D02*
X15765416Y-34882775D01*
X15817232Y-15803058D02*
X15844664Y-15762163D01*
X15817232Y-34966087D02*
X15790816Y-34924686D01*
X15844664Y-15762163D02*
X15873112Y-15722286D01*
X15844664Y-35006982D02*
X15817232Y-34966087D01*
X15873112Y-15722286D02*
X15902323Y-15682915D01*
X15873112Y-35046859D02*
X15844664Y-35006982D01*
X15902323Y-15682915D02*
X15932803Y-15644307D01*
X15902323Y-35086230D02*
X15873112Y-35046859D01*
X15932803Y-15644307D02*
X15963791Y-15606207D01*
X15932803Y-35124838D02*
X15902323Y-35086230D01*
X15963791Y-15606207D02*
X15996048Y-15569123D01*
X15963791Y-35162938D02*
X15932803Y-35124838D01*
X15996048Y-15569123D02*
X16029068Y-15532802D01*
X15996048Y-35200022D02*
X15963791Y-35162938D01*
X16029068Y-15532802D02*
X16062851Y-15497242D01*
X16029068Y-35236343D02*
X15996048Y-35200022D01*
X16062851Y-15497242D02*
X16097648Y-15462443D01*
X16062851Y-35271903D02*
X16029068Y-35236343D01*
X16097648Y-15462443D02*
X16133208Y-15428662D01*
X16097648Y-35306702D02*
X16062851Y-35271903D01*
X16133208Y-15428662D02*
X16169531Y-15395642D01*
X16133208Y-35340483D02*
X16097648Y-35306702D01*
X16169531Y-15395642D02*
X16206615Y-15363383D01*
X16169531Y-35373503D02*
X16133208Y-35340483D01*
X16206615Y-15363383D02*
X16244715Y-15332395D01*
X16206615Y-35405762D02*
X16169531Y-35373503D01*
X16244715Y-15332395D02*
X16283323Y-15301915D01*
X16244715Y-35436750D02*
X16206615Y-35405762D01*
X16283323Y-15301915D02*
X16322692Y-15272706D01*
X16283323Y-35467230D02*
X16244715Y-35436750D01*
X16322692Y-15272706D02*
X16362571Y-15244258D01*
X16322692Y-35496439D02*
X16283323Y-35467230D01*
X16362571Y-15244258D02*
X16403464Y-15216826D01*
X16362571Y-35524887D02*
X16322692Y-35496439D01*
X16403464Y-15216826D02*
X16444867Y-15190410D01*
X16403464Y-35552319D02*
X16362571Y-35524887D01*
X16444867Y-15190410D02*
X16486776Y-15165010D01*
X16444867Y-35578735D02*
X16403464Y-35552319D01*
X16486776Y-15165010D02*
X16529448Y-15140626D01*
X16486776Y-35604135D02*
X16444867Y-35578735D01*
X16529448Y-15140626D02*
X16572628Y-15117258D01*
X16529448Y-35628519D02*
X16486776Y-35604135D01*
X16572628Y-15117258D02*
X16616316Y-15095159D01*
X16572628Y-35651887D02*
X16529448Y-35628519D01*
X16616316Y-15095159D02*
X16660767Y-15073823D01*
X16616316Y-35673986D02*
X16572628Y-35651887D01*
X16660767Y-15073823D02*
X16705471Y-15053758D01*
X16660767Y-35695322D02*
X16616316Y-35673986D01*
X16705471Y-15053758D02*
X16750683Y-15034707D01*
X16705471Y-35715387D02*
X16660767Y-35695322D01*
X16750683Y-15034707D02*
X16796403Y-15016674D01*
X16750683Y-35734438D02*
X16705471Y-35715387D01*
X16796403Y-15016674D02*
X16842631Y-14999910D01*
X16796403Y-35752471D02*
X16750683Y-35734438D01*
X16842631Y-14999910D02*
X16889112Y-14984162D01*
X16842631Y-35769235D02*
X16796403Y-35752471D01*
X16889112Y-14984162D02*
X16935848Y-14969430D01*
X16889112Y-35784983D02*
X16842631Y-35769235D01*
X16935848Y-14969430D02*
X16983092Y-14955967D01*
X16935848Y-35799715D02*
X16889112Y-35784983D01*
X16983092Y-14955967D02*
X17030591Y-14943522D01*
X16983092Y-35813178D02*
X16935848Y-35799715D01*
X17030591Y-14943522D02*
X17078596Y-14932346D01*
X17030591Y-35825623D02*
X16983092Y-35813178D01*
X17078596Y-14932346D02*
X17126603Y-14922439D01*
X17078596Y-35836799D02*
X17030591Y-35825623D01*
X17126603Y-14922439D02*
X17174863Y-14913550D01*
X17126603Y-35846706D02*
X17078596Y-35836799D01*
X17174863Y-14913550D02*
X17223376Y-14905930D01*
X17174863Y-35855595D02*
X17126603Y-35846706D01*
X17223376Y-14905930D02*
X17272144Y-14899326D01*
X17223376Y-35863215D02*
X17174863Y-35855595D01*
X17272144Y-14899326D02*
X17320912Y-14893991D01*
X17272144Y-35869819D02*
X17223376Y-35863215D01*
X17320912Y-14893991D02*
X17369935Y-14889927D01*
X17320912Y-35875154D02*
X17272144Y-35869819D01*
X17369935Y-14889927D02*
X17418703Y-14886879D01*
X17369935Y-35879218D02*
X17320912Y-35875154D01*
X17418703Y-14886879D02*
X17467979Y-14885102D01*
X17418703Y-35882266D02*
X17369935Y-35879218D01*
X17467979Y-14885102D02*
X17517000Y-14884594D01*
X17467979Y-35884043D02*
X17418703Y-35882266D01*
X17517000Y-14884594D02*
X31233000Y-14884594D01*
X17517000Y-35884551D02*
X17467979Y-35884043D01*
X31233000Y-14884594D02*
X31282023Y-14885102D01*
X31233000Y-35884551D02*
X17517000Y-35884551D01*
X31282023Y-14885102D02*
X31331299Y-14886879D01*
X31282023Y-35884043D02*
X31233000Y-35884551D01*
X31331299Y-14886879D02*
X31380067Y-14889927D01*
X31331299Y-35882266D02*
X31282023Y-35884043D01*
X31380067Y-14889927D02*
X31429088Y-14893991D01*
X31380067Y-35879218D02*
X31331299Y-35882266D01*
X31429088Y-14893991D02*
X31477856Y-14899326D01*
X31429088Y-35875154D02*
X31380067Y-35879218D01*
X31477856Y-14899326D02*
X31526624Y-14905930D01*
X31477856Y-35869819D02*
X31429088Y-35875154D01*
X31526624Y-14905930D02*
X31575139Y-14913550D01*
X31526624Y-35863215D02*
X31477856Y-35869819D01*
X31575139Y-14913550D02*
X31623399Y-14922439D01*
X31575139Y-35855595D02*
X31526624Y-35863215D01*
X31623399Y-14922439D02*
X31671404Y-14932346D01*
X31623399Y-35846706D02*
X31575139Y-35855595D01*
X31671404Y-14932346D02*
X31719411Y-14943522D01*
X31671404Y-35836799D02*
X31623399Y-35846706D01*
X31719411Y-14943522D02*
X31766908Y-14955967D01*
X31719411Y-35825623D02*
X31671404Y-35836799D01*
X31766908Y-14955967D02*
X31814152Y-14969430D01*
X31766908Y-35813178D02*
X31719411Y-35825623D01*
X31814152Y-14969430D02*
X31860888Y-14984162D01*
X31814152Y-35799715D02*
X31766908Y-35813178D01*
X31860888Y-14984162D02*
X31907371Y-14999910D01*
X31860888Y-35784983D02*
X31814152Y-35799715D01*
X31907371Y-14999910D02*
X31953599Y-15016674D01*
X31907371Y-35769235D02*
X31860888Y-35784983D01*
X31953599Y-15016674D02*
X31999319Y-15034707D01*
X31953599Y-35752471D02*
X31907371Y-35769235D01*
X31999319Y-15034707D02*
X32044531Y-15053758D01*
X31999319Y-35734438D02*
X31953599Y-35752471D01*
X32044531Y-15053758D02*
X32089235Y-15073823D01*
X32044531Y-35715387D02*
X31999319Y-35734438D01*
X32089235Y-15073823D02*
X32133684Y-15095159D01*
X32089235Y-35695322D02*
X32044531Y-35715387D01*
X32133684Y-15095159D02*
X32177372Y-15117258D01*
X32133684Y-35673986D02*
X32089235Y-35695322D01*
X32177372Y-15117258D02*
X32220552Y-15140626D01*
X32177372Y-35651887D02*
X32133684Y-35673986D01*
X32220552Y-15140626D02*
X32263224Y-15165010D01*
X32220552Y-35628519D02*
X32177372Y-35651887D01*
X32263224Y-15165010D02*
X32305135Y-15190410D01*
X32263224Y-35604135D02*
X32220552Y-35628519D01*
X32305135Y-15190410D02*
X32346536Y-15216826D01*
X32305135Y-35578735D02*
X32263224Y-35604135D01*
X32346536Y-15216826D02*
X32387431Y-15244258D01*
X32346536Y-35552319D02*
X32305135Y-35578735D01*
X32387431Y-15244258D02*
X32427308Y-15272706D01*
X32387431Y-35524887D02*
X32346536Y-35552319D01*
X32427308Y-15272706D02*
X32466679Y-15301915D01*
X32427308Y-35496439D02*
X32387431Y-35524887D01*
X32466679Y-15301915D02*
X32505287Y-15332395D01*
X32466679Y-35467230D02*
X32427308Y-35496439D01*
X32505287Y-15332395D02*
X32543387Y-15363383D01*
X32505287Y-35436750D02*
X32466679Y-35467230D01*
X32543387Y-15363383D02*
X32580471Y-15395642D01*
X32543387Y-35405762D02*
X32505287Y-35436750D01*
X32580471Y-15395642D02*
X32616792Y-15428662D01*
X32580471Y-35373503D02*
X32543387Y-35405762D01*
X32616792Y-15428662D02*
X32652352Y-15462443D01*
X32616792Y-35340483D02*
X32580471Y-35373503D01*
X32652352Y-15462443D02*
X32687151Y-15497242D01*
X32652352Y-35306702D02*
X32616792Y-35340483D01*
X32687151Y-15497242D02*
X32720932Y-15532802D01*
X32687151Y-35271903D02*
X32652352Y-35306702D01*
X32720932Y-15532802D02*
X32753952Y-15569123D01*
X32720932Y-35236343D02*
X32687151Y-35271903D01*
X32753952Y-15569123D02*
X32786211Y-15606207D01*
X32753952Y-35200022D02*
X32720932Y-35236343D01*
X32786211Y-15606207D02*
X32817199Y-15644307D01*
X32786211Y-35162938D02*
X32753952Y-35200022D01*
X32817199Y-15644307D02*
X32847679Y-15682915D01*
X32817199Y-35124838D02*
X32786211Y-35162938D01*
X32847679Y-15682915D02*
X32876888Y-15722286D01*
X32847679Y-35086230D02*
X32817199Y-35124838D01*
X32876888Y-15722286D02*
X32905336Y-15762163D01*
X32876888Y-35046859D02*
X32847679Y-35086230D01*
X32905336Y-15762163D02*
X32932768Y-15803058D01*
X32905336Y-35006982D02*
X32876888Y-35046859D01*
X32932768Y-15803058D02*
X32959184Y-15844459D01*
X32932768Y-34966087D02*
X32905336Y-35006982D01*
X32959184Y-15844459D02*
X32984584Y-15886370D01*
X32959184Y-34924686D02*
X32932768Y-34966087D01*
X32984584Y-15886370D02*
X33008968Y-15929042D01*
X32984584Y-34882775D02*
X32959184Y-34924686D01*
X33008968Y-15929042D02*
X33032336Y-15972222D01*
X33008968Y-34840103D02*
X32984584Y-34882775D01*
X33032336Y-15972222D02*
X33054435Y-16015910D01*
X33032336Y-34796923D02*
X33008968Y-34840103D01*
X33054435Y-16015910D02*
X33075771Y-16060359D01*
X33054435Y-34753235D02*
X33032336Y-34796923D01*
X33075771Y-16060359D02*
X33095836Y-16105063D01*
X33075771Y-34708786D02*
X33054435Y-34753235D01*
X33095836Y-16105063D02*
X33114887Y-16150275D01*
X33095836Y-34664082D02*
X33075771Y-34708786D01*
X33114887Y-16150275D02*
X33132920Y-16195995D01*
X33114887Y-34618870D02*
X33095836Y-34664082D01*
X33132920Y-16195995D02*
X33149684Y-16242223D01*
X33132920Y-34573150D02*
X33114887Y-34618870D01*
X33149684Y-16242223D02*
X33165432Y-16288706D01*
X33149684Y-34526922D02*
X33132920Y-34573150D01*
X33165432Y-16288706D02*
X33180164Y-16335442D01*
X33165432Y-34480439D02*
X33149684Y-34526922D01*
X33180164Y-16335442D02*
X33193627Y-16382686D01*
X33180164Y-34433703D02*
X33165432Y-34480439D01*
X33193627Y-16382686D02*
X33206072Y-16430183D01*
X33193627Y-34386459D02*
X33180164Y-34433703D01*
X33206072Y-16430183D02*
X33217248Y-16478190D01*
X33206072Y-34338962D02*
X33193627Y-34386459D01*
X33217248Y-16478190D02*
X33227155Y-16526195D01*
X33217248Y-34290955D02*
X33206072Y-34338962D01*
X33227155Y-16526195D02*
X33236044Y-16574455D01*
X33227155Y-34242950D02*
X33217248Y-34290955D01*
X33236044Y-16574455D02*
X33243664Y-16622970D01*
X33236044Y-34194690D02*
X33227155Y-34242950D01*
X33243664Y-16622970D02*
X33250268Y-16671738D01*
X33243664Y-34146175D02*
X33236044Y-34194690D01*
X33250268Y-16671738D02*
X33255603Y-16720506D01*
X33250268Y-34097407D02*
X33243664Y-34146175D01*
X33255603Y-16720506D02*
X33259667Y-16769527D01*
X33255603Y-34048639D02*
X33250268Y-34097407D01*
X33259667Y-16769527D02*
X33262715Y-16818295D01*
X33259667Y-33999618D02*
X33255603Y-34048639D01*
X33262715Y-16818295D02*
X33264492Y-16867571D01*
X33262715Y-33950850D02*
X33259667Y-33999618D01*
X33264492Y-33901574D02*
X33262715Y-33950850D01*
X33265000Y-33852551D02*
X33264492Y-33901574D01*
X33275000Y-16916594D02*
X33275000Y-33852551D01*
%TD*%
M02*
